<svg xmlns="http://www.w3.org/2000/svg" viewBox="0 0 64 64" width="64" height="64">
  <g stroke="#E7FE17" stroke-width="2.6" stroke-linecap="round">
    <line x1="32.00" y1="19.50" x2="32.00" y2="5.00"/>
    <line x1="36.78" y1="20.45" x2="42.33" y2="7.06"/>
    <line x1="40.84" y1="23.16" x2="51.09" y2="12.91"/>
    <line x1="43.55" y1="27.22" x2="56.94" y2="21.67"/>
    <line x1="44.50" y1="32.00" x2="59.00" y2="32.00"/>
    <line x1="43.55" y1="36.78" x2="56.94" y2="42.33"/>
    <line x1="40.84" y1="40.84" x2="51.09" y2="51.09"/>
    <line x1="36.78" y1="43.55" x2="42.33" y2="56.94"/>
    <line x1="32.00" y1="44.50" x2="32.00" y2="59.00"/>
    <line x1="27.22" y1="43.55" x2="21.67" y2="56.94"/>
    <line x1="23.16" y1="40.84" x2="12.91" y2="51.09"/>
    <line x1="20.45" y1="36.78" x2="7.06" y2="42.33"/>
    <line x1="19.50" y1="32.00" x2="5.00" y2="32.00"/>
    <line x1="20.45" y1="27.22" x2="7.06" y2="21.67"/>
    <line x1="23.16" y1="23.16" x2="12.91" y2="12.91"/>
    <line x1="27.22" y1="20.45" x2="21.67" y2="7.06"/>
  </g>
  <circle cx="32" cy="32" r="7.2" fill="none" stroke="#E7FE17" stroke-width="2.6"/>
</svg>
